<mxfile host="app.diagrams.net" modified="2021-02-16T00:26:51.530Z" agent="5.0 (Windows NT 10.0; Win64; x64) AppleWebKit/537.36 (KHTML, like Gecko) Chrome/88.0.4324.150 Safari/537.36" etag="aFKaMOHjIgX_YHwBNAmI" version="14.3.0" type="github">
  <diagram id="DRKgS_u7C-InQVJtqIbm" name="페이지-1">
    <mxGraphModel dx="981" dy="526" grid="1" gridSize="10" guides="1" tooltips="1" connect="1" arrows="1" fold="1" page="1" pageScale="1" pageWidth="1169" pageHeight="827" math="0" shadow="0">
      <root>
        <mxCell id="0" />
        <mxCell id="1" parent="0" />
        <mxCell id="PKve1FevJ8ncGGKse-gU-3" value="" style="edgeStyle=orthogonalEdgeStyle;rounded=0;orthogonalLoop=1;jettySize=auto;html=1;" edge="1" parent="1" source="PKve1FevJ8ncGGKse-gU-1" target="PKve1FevJ8ncGGKse-gU-2">
          <mxGeometry relative="1" as="geometry" />
        </mxCell>
        <mxCell id="PKve1FevJ8ncGGKse-gU-1" value="설정 값 변경" style="rounded=0;whiteSpace=wrap;html=1;" vertex="1" parent="1">
          <mxGeometry x="70" y="110" width="120" height="60" as="geometry" />
        </mxCell>
        <mxCell id="PKve1FevJ8ncGGKse-gU-6" value="" style="edgeStyle=orthogonalEdgeStyle;rounded=0;orthogonalLoop=1;jettySize=auto;html=1;" edge="1" parent="1" source="PKve1FevJ8ncGGKse-gU-2" target="PKve1FevJ8ncGGKse-gU-5">
          <mxGeometry relative="1" as="geometry" />
        </mxCell>
        <mxCell id="PKve1FevJ8ncGGKse-gU-2" value="API" style="rounded=0;whiteSpace=wrap;html=1;" vertex="1" parent="1">
          <mxGeometry x="290" y="110" width="120" height="60" as="geometry" />
        </mxCell>
        <mxCell id="PKve1FevJ8ncGGKse-gU-4" value="&lt;font style=&quot;font-size: 14px&quot;&gt;{&quot;updateconfigurationresponse&quot;:{&quot;configuration&quot;:{&quot;category&quot;:&quot;Advanced&quot;,&quot;name&quot;:&quot;cloud.kubernetes.service.enabled&quot;,&quot;&lt;br&gt;&lt;/font&gt;&lt;div style=&quot;font-size: 14px&quot;&gt;&lt;font style=&quot;font-size: 14px&quot;&gt;value&quot;:&quot;true&quot;,&lt;/font&gt;&lt;span&gt;&quot;description&quot;:&quot;~~~~~~~~~&lt;/span&gt;&lt;span&gt;&quot;,&quot;isdynamic&quot;:false}}}&lt;/span&gt;&lt;/div&gt;" style="text;html=1;strokeColor=none;fillColor=none;align=left;verticalAlign=middle;whiteSpace=wrap;rounded=0;" vertex="1" parent="1">
          <mxGeometry x="290" y="180" width="380" height="60" as="geometry" />
        </mxCell>
        <mxCell id="PKve1FevJ8ncGGKse-gU-5" value="API" style="rounded=0;whiteSpace=wrap;html=1;" vertex="1" parent="1">
          <mxGeometry x="760" y="110" width="120" height="60" as="geometry" />
        </mxCell>
      </root>
    </mxGraphModel>
  </diagram>
</mxfile>
